<svg width="28" height="28" viewBox="0 0 28 28" fill="none" xmlns="http://www.w3.org/2000/svg">
<path d="M22.3125 2.625H5.6875C4.64357 2.62616 3.64272 3.04137 2.90455 3.77955C2.16637 4.51772 1.75116 5.51857 1.75 6.5625V17.0625C1.75116 18.1064 2.16637 19.1073 2.90455 19.8455C3.64272 20.5836 4.64357 20.9988 5.6875 21H7V24.5C6.99995 24.6664 7.04734 24.8293 7.13661 24.9697C7.22587 25.1101 7.35331 25.2221 7.50398 25.2927C7.65466 25.3632 7.82232 25.3894 7.98732 25.368C8.15231 25.3466 8.3078 25.2787 8.43555 25.1721L13.4389 21H22.3125C23.3564 20.9988 24.3573 20.5836 25.0955 19.8455C25.8336 19.1073 26.2488 18.1064 26.25 17.0625V6.5625C26.2488 5.51857 25.8336 4.51772 25.0955 3.77955C24.3573 3.04137 23.3564 2.62616 22.3125 2.625ZM8.75 13.5625C8.40388 13.5625 8.06554 13.4599 7.77775 13.2676C7.48997 13.0753 7.26566 12.802 7.13321 12.4822C7.00076 12.1624 6.9661 11.8106 7.03363 11.4711C7.10115 11.1316 7.26782 10.8198 7.51256 10.5751C7.75731 10.3303 8.06913 10.1636 8.40859 10.0961C8.74806 10.0286 9.09993 10.0633 9.4197 10.1957C9.73947 10.3282 10.0128 10.5525 10.2051 10.8403C10.3974 11.128 10.5 11.4664 10.5 11.8125C10.5 12.2766 10.3156 12.7217 9.98744 13.0499C9.65925 13.3781 9.21413 13.5625 8.75 13.5625ZM14 13.5625C13.6539 13.5625 13.3155 13.4599 13.0278 13.2676C12.74 13.0753 12.5157 12.802 12.3832 12.4822C12.2508 12.1624 12.2161 11.8106 12.2836 11.4711C12.3511 11.1316 12.5178 10.8198 12.7626 10.5751C13.0073 10.3303 13.3191 10.1636 13.6586 10.0961C13.9981 10.0286 14.3499 10.0633 14.6697 10.1957C14.9895 10.3282 15.2628 10.5525 15.4551 10.8403C15.6474 11.128 15.75 11.4664 15.75 11.8125C15.75 12.2766 15.5656 12.7217 15.2374 13.0499C14.9092 13.3781 14.4641 13.5625 14 13.5625ZM19.25 13.5625C18.9039 13.5625 18.5655 13.4599 18.2778 13.2676C17.99 13.0753 17.7657 12.802 17.6332 12.4822C17.5008 12.1624 17.4661 11.8106 17.5336 11.4711C17.6011 11.1316 17.7678 10.8198 18.0126 10.5751C18.2573 10.3303 18.5691 10.1636 18.9086 10.0961C19.2481 10.0286 19.5999 10.0633 19.9197 10.1957C20.2395 10.3282 20.5128 10.5525 20.7051 10.8403C20.8974 11.128 21 11.4664 21 11.8125C21 12.2766 20.8156 12.7217 20.4874 13.0499C20.1592 13.3781 19.7141 13.5625 19.25 13.5625Z" fill="#08C84F"/>
</svg>
