<svg width="28" height="28" viewBox="0 0 28 28" fill="none" xmlns="http://www.w3.org/2000/svg">
<path d="M24.8637 9.26406C24.7015 9.1007 24.5085 8.97115 24.2958 8.88291C24.0832 8.79467 23.8552 8.74949 23.625 8.75H20.125V7.875C20.125 6.25055 19.4797 4.69263 18.331 3.54397C17.1824 2.39531 15.6245 1.75 14 1.75C12.3755 1.75 10.8176 2.39531 9.66897 3.54397C8.52031 4.69263 7.875 6.25055 7.875 7.875V8.75H4.375C3.91087 8.75 3.46575 8.93437 3.13756 9.26256C2.80937 9.59075 2.625 10.0359 2.625 10.5V22.3125C2.625 24.4453 4.42969 26.25 6.5625 26.25H21.4375C22.4692 26.2503 23.46 25.847 24.1981 25.1262C24.5696 24.7718 24.8654 24.3458 25.0676 23.874C25.2699 23.4022 25.3745 22.8942 25.375 22.3809V10.5C25.3757 10.2704 25.3309 10.043 25.2431 9.83082C25.1554 9.61867 25.0264 9.42604 24.8637 9.26406V9.26406ZM18.183 14.9844L13.283 21.1094C13.2026 21.2099 13.1009 21.2915 12.9853 21.3482C12.8697 21.4049 12.743 21.4354 12.6142 21.4375H12.6C12.4736 21.4375 12.3487 21.4101 12.2339 21.3573C12.1191 21.3044 12.0172 21.2273 11.935 21.1312L9.835 18.6769C9.76031 18.5895 9.70355 18.4884 9.66797 18.3791C9.63239 18.2698 9.61867 18.1546 9.62761 18.0401C9.63654 17.9255 9.66796 17.8138 9.72006 17.7114C9.77216 17.609 9.84392 17.5178 9.93125 17.4431C10.0186 17.3684 10.1198 17.3117 10.229 17.2761C10.3383 17.2405 10.4535 17.2268 10.5681 17.2357C10.6826 17.2447 10.7943 17.2761 10.8967 17.3282C10.9992 17.3803 11.0903 17.452 11.165 17.5394L12.5781 19.1904L16.817 13.8906C16.962 13.7093 17.1731 13.5931 17.4039 13.5674C17.6346 13.5418 17.8661 13.6089 18.0474 13.7539C18.2287 13.8989 18.345 14.1101 18.3706 14.3408C18.3963 14.5716 18.3292 14.8031 18.1841 14.9844H18.183ZM18.375 8.75H9.625V7.875C9.625 6.71468 10.0859 5.60188 10.9064 4.78141C11.7269 3.96094 12.8397 3.5 14 3.5C15.1603 3.5 16.2731 3.96094 17.0936 4.78141C17.9141 5.60188 18.375 6.71468 18.375 7.875V8.75Z" fill="white"/>
</svg>
