<svg width="28" height="28" viewBox="0 0 28 28" fill="none" xmlns="http://www.w3.org/2000/svg">
<g clip-path="url(#clip0_3_186)">
<path d="M24.5 22.5242C24.5 22.8215 24.3771 23.1066 24.1583 23.3169C23.9395 23.5271 23.6428 23.6452 23.3333 23.6452H4.66667C4.35725 23.6452 4.0605 23.5271 3.84171 23.3169C3.62292 23.1066 3.5 22.8215 3.5 22.5242V10.7421C3.49988 10.5713 3.54039 10.4027 3.61844 10.2492C3.69648 10.0957 3.81001 9.96137 3.95033 9.85647L13.2837 2.8814C13.4885 2.72832 13.7405 2.6452 14 2.6452C14.2595 2.6452 14.5115 2.72832 14.7163 2.8814L24.0497 9.85647C24.19 9.96137 24.3035 10.0957 24.3816 10.2492C24.4596 10.4027 24.5001 10.5713 24.5 10.7421V22.5242Z" fill="#08C84F"/>
</g>
<defs>
<clipPath id="clip0_3_186">
<rect width="28" height="28" fill="white"/>
</clipPath>
</defs>
</svg>
